<mxfile host="app.diagrams.net" modified="2023-04-17T15:39:43.104Z" agent="Mozilla/5.0 (Macintosh; Intel Mac OS X 10.15; rv:109.0) Gecko/20100101 Firefox/112.0" etag="sq64AVeX5u3H7FN1lEGA" version="21.1.7" type="google">
  <diagram name="Pagina-1" id="_OPdoFWUCmftYynakXeq">
    <mxGraphModel grid="1" page="1" gridSize="10" guides="1" tooltips="1" connect="1" arrows="1" fold="1" pageScale="1" pageWidth="827" pageHeight="1169" math="0" shadow="0">
      <root>
        <mxCell id="0" />
        <mxCell id="1" parent="0" />
        <mxCell id="82NtfHBXxQlsBbAOw297-3" value="" style="edgeStyle=orthogonalEdgeStyle;rounded=0;orthogonalLoop=1;jettySize=auto;html=1;" edge="1" parent="1" source="82NtfHBXxQlsBbAOw297-1" target="82NtfHBXxQlsBbAOw297-2">
          <mxGeometry relative="1" as="geometry" />
        </mxCell>
        <mxCell id="82NtfHBXxQlsBbAOw297-1" value="Start" style="ellipse;whiteSpace=wrap;html=1;" vertex="1" parent="1">
          <mxGeometry x="340" width="120" height="70" as="geometry" />
        </mxCell>
        <mxCell id="82NtfHBXxQlsBbAOw297-7" value="" style="edgeStyle=orthogonalEdgeStyle;rounded=0;orthogonalLoop=1;jettySize=auto;html=1;" edge="1" parent="1" source="82NtfHBXxQlsBbAOw297-2" target="82NtfHBXxQlsBbAOw297-4">
          <mxGeometry relative="1" as="geometry" />
        </mxCell>
        <mxCell id="82NtfHBXxQlsBbAOw297-2" value="int [ ]array ={5,4,6,8,2} " style="rounded=0;whiteSpace=wrap;html=1;" vertex="1" parent="1">
          <mxGeometry x="340" y="100" width="120" height="60" as="geometry" />
        </mxCell>
        <mxCell id="82NtfHBXxQlsBbAOw297-6" value="" style="edgeStyle=orthogonalEdgeStyle;rounded=0;orthogonalLoop=1;jettySize=auto;html=1;" edge="1" parent="1" source="82NtfHBXxQlsBbAOw297-4" target="82NtfHBXxQlsBbAOw297-5">
          <mxGeometry relative="1" as="geometry" />
        </mxCell>
        <mxCell id="82NtfHBXxQlsBbAOw297-22" style="edgeStyle=orthogonalEdgeStyle;rounded=0;orthogonalLoop=1;jettySize=auto;html=1;" edge="1" parent="1" source="82NtfHBXxQlsBbAOw297-4" target="82NtfHBXxQlsBbAOw297-23">
          <mxGeometry relative="1" as="geometry">
            <mxPoint x="780" y="841" as="targetPoint" />
            <Array as="points">
              <mxPoint x="790" y="220" />
              <mxPoint x="790" y="220" />
            </Array>
          </mxGeometry>
        </mxCell>
        <mxCell id="82NtfHBXxQlsBbAOw297-4" value="int i = 0; i &amp;lt; array.length-1;i++" style="shape=hexagon;perimeter=hexagonPerimeter2;whiteSpace=wrap;html=1;fixedSize=1;" vertex="1" parent="1">
          <mxGeometry x="340" y="190" width="120" height="60" as="geometry" />
        </mxCell>
        <mxCell id="82NtfHBXxQlsBbAOw297-9" value="" style="edgeStyle=orthogonalEdgeStyle;rounded=0;orthogonalLoop=1;jettySize=auto;html=1;" edge="1" parent="1" source="82NtfHBXxQlsBbAOw297-5" target="82NtfHBXxQlsBbAOw297-8">
          <mxGeometry relative="1" as="geometry" />
        </mxCell>
        <mxCell id="82NtfHBXxQlsBbAOw297-21" style="edgeStyle=orthogonalEdgeStyle;rounded=0;orthogonalLoop=1;jettySize=auto;html=1;" edge="1" parent="1" source="82NtfHBXxQlsBbAOw297-5">
          <mxGeometry relative="1" as="geometry">
            <mxPoint x="330" y="220" as="targetPoint" />
            <Array as="points">
              <mxPoint x="670" y="310" />
              <mxPoint x="670" y="800" />
              <mxPoint x="40" y="800" />
            </Array>
          </mxGeometry>
        </mxCell>
        <mxCell id="82NtfHBXxQlsBbAOw297-5" value="int i = 0; i &amp;lt; array.length-1;a++" style="shape=hexagon;perimeter=hexagonPerimeter2;whiteSpace=wrap;html=1;fixedSize=1;" vertex="1" parent="1">
          <mxGeometry x="340" y="280" width="120" height="60" as="geometry" />
        </mxCell>
        <mxCell id="82NtfHBXxQlsBbAOw297-13" style="edgeStyle=orthogonalEdgeStyle;rounded=0;orthogonalLoop=1;jettySize=auto;html=1;" edge="1" parent="1" source="82NtfHBXxQlsBbAOw297-8" target="82NtfHBXxQlsBbAOw297-10">
          <mxGeometry relative="1" as="geometry">
            <Array as="points">
              <mxPoint x="560" y="425" />
            </Array>
          </mxGeometry>
        </mxCell>
        <mxCell id="82NtfHBXxQlsBbAOw297-19" style="edgeStyle=orthogonalEdgeStyle;rounded=0;orthogonalLoop=1;jettySize=auto;html=1;" edge="1" parent="1" source="82NtfHBXxQlsBbAOw297-8">
          <mxGeometry relative="1" as="geometry">
            <mxPoint x="370" y="690" as="targetPoint" />
            <Array as="points">
              <mxPoint x="230" y="425" />
              <mxPoint x="230" y="690" />
            </Array>
          </mxGeometry>
        </mxCell>
        <mxCell id="82NtfHBXxQlsBbAOw297-8" value="&lt;div&gt;array[ ]&lt;/div&gt;&lt;div&gt;&amp;lt; array[a+1]&lt;br&gt;&lt;/div&gt;" style="rhombus;whiteSpace=wrap;html=1;" vertex="1" parent="1">
          <mxGeometry x="330" y="370" width="140" height="110" as="geometry" />
        </mxCell>
        <mxCell id="82NtfHBXxQlsBbAOw297-15" value="" style="edgeStyle=orthogonalEdgeStyle;rounded=0;orthogonalLoop=1;jettySize=auto;html=1;" edge="1" parent="1" source="82NtfHBXxQlsBbAOw297-10" target="82NtfHBXxQlsBbAOw297-12">
          <mxGeometry relative="1" as="geometry" />
        </mxCell>
        <mxCell id="82NtfHBXxQlsBbAOw297-10" value="tmp = array[a]" style="rounded=0;whiteSpace=wrap;html=1;" vertex="1" parent="1">
          <mxGeometry x="490" y="470" width="120" height="40" as="geometry" />
        </mxCell>
        <mxCell id="82NtfHBXxQlsBbAOw297-11" value="array[a] = array [a+1]" style="rounded=0;whiteSpace=wrap;html=1;" vertex="1" parent="1">
          <mxGeometry x="490" y="530" width="120" height="40" as="geometry" />
        </mxCell>
        <mxCell id="82NtfHBXxQlsBbAOw297-17" style="edgeStyle=orthogonalEdgeStyle;rounded=0;orthogonalLoop=1;jettySize=auto;html=1;entryX=0.975;entryY=0.75;entryDx=0;entryDy=0;entryPerimeter=0;" edge="1" parent="1" source="82NtfHBXxQlsBbAOw297-12" target="82NtfHBXxQlsBbAOw297-16">
          <mxGeometry relative="1" as="geometry">
            <Array as="points">
              <mxPoint x="550" y="690" />
              <mxPoint x="424" y="690" />
            </Array>
          </mxGeometry>
        </mxCell>
        <mxCell id="82NtfHBXxQlsBbAOw297-12" value="array [a+1] = tmp" style="rounded=0;whiteSpace=wrap;html=1;" vertex="1" parent="1">
          <mxGeometry x="490" y="594.5" width="120" height="40" as="geometry" />
        </mxCell>
        <mxCell id="82NtfHBXxQlsBbAOw297-20" style="edgeStyle=orthogonalEdgeStyle;rounded=0;orthogonalLoop=1;jettySize=auto;html=1;entryX=0;entryY=0.5;entryDx=0;entryDy=0;" edge="1" parent="1" source="82NtfHBXxQlsBbAOw297-16" target="82NtfHBXxQlsBbAOw297-5">
          <mxGeometry relative="1" as="geometry">
            <mxPoint x="90" y="310" as="targetPoint" />
            <Array as="points">
              <mxPoint x="400" y="750" />
              <mxPoint x="90" y="750" />
              <mxPoint x="90" y="310" />
            </Array>
          </mxGeometry>
        </mxCell>
        <mxCell id="82NtfHBXxQlsBbAOw297-16" value="" style="ellipse;whiteSpace=wrap;html=1;aspect=fixed;" vertex="1" parent="1">
          <mxGeometry x="375" y="660" width="50" height="50" as="geometry" />
        </mxCell>
        <mxCell id="82NtfHBXxQlsBbAOw297-23" value="end" style="ellipse;whiteSpace=wrap;html=1;" vertex="1" parent="1">
          <mxGeometry x="720" y="801" width="120" height="80" as="geometry" />
        </mxCell>
      </root>
    </mxGraphModel>
  </diagram>
</mxfile>
